<svg width="54" height="54" viewBox="0 0 54 54" fill="none" xmlns="http://www.w3.org/2000/svg">
<path fill-rule="evenodd" clip-rule="evenodd" d="M29.9116 1.89782L36.3629 13.5644C36.5946 13.9793 36.9098 14.3417 37.2886 14.6288C37.6673 14.9159 38.1014 15.1214 38.5635 15.2325L51.1998 18.026C51.7873 18.1816 52.3259 18.4833 52.7654 18.903C53.2049 19.3227 53.5311 19.8468 53.7137 20.4264C53.8962 21.0061 53.9291 21.6225 53.8093 22.2184C53.6896 22.8142 53.421 23.37 53.0286 23.8341L44.3717 33.8828C44.048 34.2456 43.8042 34.6724 43.6562 35.1355C43.5082 35.5986 43.4592 36.0876 43.5125 36.5709L44.854 50.011C45.1254 52.699 42.5428 54.6837 40.1764 53.5582L28.349 48.0716C27.9158 47.8885 27.4503 47.7942 26.9799 47.7942C26.5096 47.7942 26.044 47.8885 25.6108 48.0716L13.8337 53.5582C11.4722 54.6837 8.80934 52.699 9.10578 50.011L10.4473 36.5709C10.4971 36.0919 10.4517 35.6079 10.3137 35.1466C10.1758 34.6853 9.94794 34.2558 9.64339 33.8828L0.986444 23.8341C-0.731883 21.8244 0.232776 18.6189 2.76002 18.026L15.3963 15.2325C15.8646 15.137 16.3055 14.9376 16.6864 14.6488C17.0673 14.3601 17.3785 13.9895 17.5969 13.5644L24.1035 1.89782C24.3767 1.36269 24.7926 0.913463 25.305 0.599737C25.8175 0.286012 26.4067 0.119995 27.0075 0.119995C27.6084 0.119995 28.1976 0.286012 28.7101 0.599737C29.2225 0.913463 29.6383 1.36269 29.9116 1.89782Z" fill="url(#paint0_linear_1_244)"/>
<path d="M20.8024 30.1849C8.32695 26.8538 15.4214 19.679 18.446 22.3369C18.4966 22.3809 18.5573 22.4115 18.6227 22.426C18.6881 22.4405 18.7561 22.4384 18.8205 22.4199C18.885 22.4014 18.9437 22.3672 18.9915 22.3202C19.0393 22.2732 19.0746 22.2151 19.0942 22.151C20.2849 18.3073 30.0824 20.709 21.1943 30.0744C21.1445 30.1256 21.082 30.1628 21.0132 30.1822C20.9444 30.2016 20.8717 30.2025 20.8024 30.1849Z" fill="#EB2C5F"/>
<path d="M33.1972 30.1849C45.6726 26.8538 38.5782 19.679 35.5536 22.3369C35.503 22.3809 35.4423 22.4115 35.3769 22.426C35.3114 22.4405 35.2434 22.4384 35.179 22.4199C35.1146 22.4014 35.0558 22.3672 35.0081 22.3202C34.9603 22.2732 34.925 22.2151 34.9054 22.151C33.7147 18.3073 23.9172 20.709 32.8052 30.0744C32.8551 30.1256 32.9176 30.1628 32.9864 30.1822C33.0552 30.2016 33.1279 30.2025 33.1972 30.1849Z" fill="#EB2C5F"/>
<path d="M35.9206 36.0081C35.4182 37.9777 33.7049 39.6357 31.3535 40.5702C28.5488 41.6352 25.451 41.6352 22.6463 40.5702C20.2949 39.6357 18.5766 37.9777 18.0791 36.0081C18.0482 35.8904 18.0485 35.7667 18.0801 35.6491C18.1117 35.5316 18.1734 35.4243 18.2592 35.338C18.345 35.2517 18.4519 35.1893 18.5693 35.157C18.6866 35.1248 18.8104 35.1237 18.9283 35.154C24.2516 36.2526 29.7432 36.2526 35.0665 35.154C35.1847 35.1226 35.3091 35.1228 35.4272 35.1546C35.5453 35.1864 35.6529 35.2487 35.7394 35.3352C35.8259 35.4216 35.8882 35.5293 35.92 35.6474C35.9518 35.7655 35.952 35.8899 35.9206 36.0081Z" fill="black"/>
<path d="M31.3531 40.5702C28.5483 41.6352 25.4506 41.6352 22.6459 40.5702C23.0528 39.2438 24.8465 38.254 27.002 38.254C29.1574 38.254 30.9461 39.2438 31.3531 40.5702Z" fill="#DA433B"/>
<defs>
<linearGradient id="paint0_linear_1_244" x1="27" y1="0.119995" x2="27" y2="53.8797" gradientUnits="userSpaceOnUse">
<stop stop-color="#FFB800"/>
<stop offset="1" stop-color="#FF9D00"/>
</linearGradient>
</defs>
</svg>
