<svg width="54" height="54" viewBox="0 0 54 54" fill="none" xmlns="http://www.w3.org/2000/svg">
<path fill-rule="evenodd" clip-rule="evenodd" d="M29.9487 1.89998L36.4078 13.5806C36.6397 13.9966 36.956 14.3595 37.3362 14.6463C37.7165 14.933 38.1525 15.1371 38.6162 15.2457L51.2626 18.0476C51.8507 18.2026 52.39 18.504 52.8302 18.9237C53.2704 19.3434 53.5972 19.8678 53.78 20.4478C53.9628 21.0279 53.9957 21.6449 53.8757 22.2411C53.7557 22.8374 53.4867 23.3935 53.0937 23.8577L44.4313 33.9185C43.7983 34.6659 43.4872 35.6336 43.5661 36.6098L44.9696 50.0662C45.2362 52.7574 42.6003 54.7495 40.2309 53.6176L28.3893 48.1295C27.9653 47.9428 27.507 47.8464 27.0437 47.8464C26.5804 47.8464 26.1221 47.9428 25.6981 48.1295L13.8565 53.6176C11.4871 54.7495 8.82609 52.7574 9.11785 50.0662L10.4609 36.6098C10.5236 36.1298 10.4844 35.6421 10.3457 35.1783C10.207 34.7146 9.97199 34.2853 9.65608 33.9185L0.988687 23.8577C0.590217 23.3955 0.31644 22.8392 0.193352 22.2415C0.0702635 21.6438 0.101972 21.0245 0.2854 20.4425C0.468828 19.8604 0.797888 19.3349 1.24144 18.9158C1.68498 18.4967 2.22829 18.1978 2.81976 18.0476L15.3958 15.2457C15.8694 15.1457 16.3161 14.9454 16.7058 14.6582C17.0954 14.3709 17.4189 14.0035 17.6544 13.5806L24.1135 1.89998C24.3871 1.3642 24.8034 0.914431 25.3165 0.600327C25.8296 0.286224 26.4195 0.119995 27.0211 0.119995C27.6227 0.119995 28.2126 0.286224 28.7256 0.600327C29.2387 0.914431 29.6551 1.3642 29.9287 1.89998H29.9487Z" fill="url(#paint0_linear_1_592)"/>
<path d="M18.8667 28.0279C21.0004 28.0279 22.7301 26.2982 22.7301 24.1646C22.7301 22.0309 21.0004 20.3012 18.8667 20.3012C16.7331 20.3012 15.0034 22.0309 15.0034 24.1646C15.0034 26.2982 16.7331 28.0279 18.8667 28.0279Z" fill="white"/>
<path d="M18.8667 26.1365C19.9558 26.1365 20.8386 25.2536 20.8386 24.1646C20.8386 23.0755 19.9558 22.1926 18.8667 22.1926C17.7777 22.1926 16.8948 23.0755 16.8948 24.1646C16.8948 25.2536 17.7777 26.1365 18.8667 26.1365Z" fill="black"/>
<path d="M35.2052 28.0279C37.3389 28.0279 39.0685 26.2982 39.0685 24.1646C39.0685 22.0309 37.3389 20.3012 35.2052 20.3012C33.0715 20.3012 31.3418 22.0309 31.3418 24.1646C31.3418 26.2982 33.0715 28.0279 35.2052 28.0279Z" fill="white"/>
<path d="M35.2052 26.1365C36.2942 26.1365 37.177 25.2536 37.177 24.1646C37.177 23.0755 36.2942 22.1926 35.2052 22.1926C34.1161 22.1926 33.2332 23.0755 33.2332 24.1646C33.2332 25.2536 34.1161 26.1365 35.2052 26.1365Z" fill="black"/>
<path d="M13.3429 32.7163C14.9487 32.7163 16.2504 31.8109 16.2504 30.6941C16.2504 29.5773 14.9487 28.6719 13.3429 28.6719C11.7371 28.6719 10.4353 29.5773 10.4353 30.6941C10.4353 31.8109 11.7371 32.7163 13.3429 32.7163Z" fill="#FFD364"/>
<path d="M40.7291 32.7163C42.3349 32.7163 43.6367 31.8109 43.6367 30.6941C43.6367 29.5773 42.3349 28.6719 40.7291 28.6719C39.1233 28.6719 37.8215 29.5773 37.8215 30.6941C37.8215 31.8109 39.1233 32.7163 40.7291 32.7163Z" fill="#FFD364"/>
<path d="M27.0208 36.7054C23.9724 36.7054 21.3767 34.1097 20.8586 30.5381C20.8465 30.3552 20.9038 30.1744 21.0191 30.0319C21.1343 29.8893 21.299 29.7953 21.4804 29.7687C21.6618 29.742 21.8466 29.7847 21.998 29.8881C22.1493 29.9915 22.2562 30.1482 22.2973 30.3269C22.7148 33.1791 24.7018 35.2466 27.0208 35.2466C29.3398 35.2466 31.3269 33.1791 31.7444 30.3269C31.751 30.2264 31.7783 30.1283 31.8247 30.0389C31.8711 29.9495 31.9354 29.8707 32.0137 29.8074C32.092 29.7441 32.1826 29.6977 32.2798 29.6711C32.3769 29.6445 32.4786 29.6384 32.5782 29.653C32.6779 29.6676 32.7734 29.7027 32.8588 29.7561C32.9442 29.8095 33.0176 29.88 33.0744 29.9631C33.1313 30.0463 33.1703 30.1403 33.189 30.2393C33.2077 30.3382 33.2056 30.44 33.1831 30.5381C32.68 34.1097 30.0843 36.7054 27.0208 36.7054Z" fill="black"/>
<defs>
<linearGradient id="paint0_linear_1_592" x1="27.0331" y1="0.119995" x2="27.0331" y2="53.9414" gradientUnits="userSpaceOnUse">
<stop stop-color="white"/>
<stop offset="1" stop-color="#C5C5C5"/>
</linearGradient>
</defs>
</svg>
