<svg width="54" height="54" viewBox="0 0 54 54" fill="none" xmlns="http://www.w3.org/2000/svg">
<path fill-rule="evenodd" clip-rule="evenodd" d="M29.9215 1.88389L36.355 13.5456C36.586 13.9609 36.9008 14.3237 37.2795 14.6107C37.6582 14.8978 38.0925 15.1029 38.5548 15.213L51.2009 18.0104C51.7882 18.166 52.3265 18.4675 52.7659 18.8871C53.2052 19.3066 53.5313 19.8305 53.7138 20.4099C53.8962 20.9893 53.9291 21.6055 53.8094 22.2011C53.6897 22.7967 53.4212 23.3523 53.029 23.8162L44.3756 33.8608C43.7445 34.6071 43.4356 35.5736 43.5168 36.5477L44.8929 49.9823C45.1641 52.6692 42.5274 54.658 40.1619 53.528L28.3395 48.0487C27.9161 47.8624 27.4586 47.7661 26.996 47.7661C26.5334 47.7661 26.0759 47.8624 25.6526 48.0487L13.8301 53.528C11.4646 54.658 8.83293 52.6692 9.10413 49.9823L10.4451 36.5477C10.5067 36.0685 10.467 35.5818 10.3286 35.1189C10.1902 34.656 9.95611 34.2274 9.64152 33.8608L0.988118 23.8162C0.58915 23.3534 0.31543 22.7961 0.193056 22.1975C0.0706818 21.5989 0.103748 20.9788 0.289094 20.3966C0.47444 19.8144 0.805878 19.2894 1.2518 18.8716C1.69772 18.4539 2.24325 18.1574 2.83633 18.0104L15.392 15.2181C15.8659 15.1174 16.3127 14.9166 16.7025 14.629C17.0924 14.3414 17.4161 13.9737 17.6521 13.5507L24.1007 1.88891C24.3751 1.35547 24.7912 0.907975 25.3033 0.595534C25.8154 0.283093 26.4037 0.117798 27.0036 0.117798C27.6034 0.117798 28.1917 0.283093 28.7038 0.595534C29.2159 0.907975 29.632 1.35547 29.9064 1.88891L29.9215 1.88389Z" fill="url(#paint0_linear_1_218)"/>
<path d="M33.4672 37.291V38.0493C33.4672 38.0893 33.4513 38.1276 33.4231 38.1558C33.3948 38.1841 33.3565 38.2 33.3165 38.2H20.7106C20.6906 38.2007 20.6707 38.1973 20.6521 38.1899C20.6335 38.1826 20.6166 38.1715 20.6025 38.1574C20.5884 38.1433 20.5773 38.1264 20.5699 38.1078C20.5626 38.0892 20.5592 38.0693 20.5599 38.0493V37.291C20.5586 37.2674 20.5634 37.2438 20.574 37.2227C20.5846 37.2015 20.6005 37.1835 20.6202 37.1704C21.9662 36.166 24.3266 35.5131 27.0135 35.5131C29.7005 35.5131 32.0609 36.176 33.4019 37.1704C33.4222 37.1833 33.4388 37.2011 33.4502 37.2222C33.4616 37.2433 33.4675 37.267 33.4672 37.291Z" fill="black"/>
<path d="M19.5705 33.1878C20.9269 33.1878 22.0264 31.7667 22.0264 30.0137C22.0264 28.2607 20.9269 26.8396 19.5705 26.8396C18.2142 26.8396 17.1146 28.2607 17.1146 30.0137C17.1146 31.7667 18.2142 33.1878 19.5705 33.1878Z" fill="black"/>
<path d="M23.2966 28.3262C23.2467 28.3338 23.1959 28.3338 23.1459 28.3262L13.7141 26.1465C13.6265 26.1273 13.5435 26.0909 13.4701 26.0393C13.3967 25.9878 13.3342 25.9222 13.2863 25.8464C13.2384 25.7705 13.206 25.6859 13.191 25.5975C13.1761 25.509 13.1788 25.4185 13.199 25.3311C13.2193 25.2437 13.2567 25.1612 13.3091 25.0884C13.3615 25.0156 13.4278 24.9539 13.5042 24.9069C13.5806 24.8599 13.6656 24.8285 13.7542 24.8145C13.8428 24.8006 13.9333 24.8044 14.0204 24.8257L22.6236 26.8346V22.41C22.6155 22.3164 22.627 22.2221 22.6573 22.1332C22.6876 22.0442 22.736 21.9625 22.7995 21.8933C22.863 21.8241 22.9402 21.7688 23.0262 21.731C23.1122 21.6932 23.2052 21.6736 23.2991 21.6736C23.3931 21.6736 23.486 21.6932 23.572 21.731C23.658 21.7688 23.7352 21.8241 23.7987 21.8933C23.8622 21.9625 23.9107 22.0442 23.9409 22.1332C23.9712 22.2221 23.9827 22.3164 23.9746 22.41V27.6884C23.9745 27.7899 23.9513 27.8901 23.907 27.9814C23.8626 28.0727 23.7982 28.1528 23.7185 28.2157C23.5948 28.3002 23.4458 28.3392 23.2966 28.3262Z" fill="#4A3E26"/>
<path d="M34.4569 33.1878C35.8132 33.1878 36.9128 31.7667 36.9128 30.0137C36.9128 28.2607 35.8132 26.8396 34.4569 26.8396C33.1005 26.8396 32.001 28.2607 32.001 30.0137C32.001 31.7667 33.1005 33.1878 34.4569 33.1878Z" fill="black"/>
<path d="M30.7146 28.3262C30.5607 28.3268 30.4114 28.2735 30.2927 28.1755C30.213 28.1126 30.1486 28.0325 30.1042 27.9412C30.0599 27.8498 30.0368 27.7497 30.0366 27.6481V22.3697C30.0366 22.1899 30.108 22.0175 30.2352 21.8903C30.3623 21.7631 30.5348 21.6917 30.7146 21.6917C30.8944 21.6917 31.0669 21.7631 31.1941 21.8903C31.3212 22.0175 31.3926 22.1899 31.3926 22.3697V26.7944L39.9908 24.7854C40.1651 24.746 40.348 24.7766 40.5001 24.8705C40.6522 24.9644 40.7615 25.1141 40.8044 25.2877C40.8253 25.3741 40.8288 25.4638 40.8148 25.5516C40.8008 25.6394 40.7696 25.7235 40.7229 25.7992C40.6762 25.8748 40.615 25.9405 40.5428 25.9923C40.4705 26.0442 40.3888 26.0812 40.3022 26.1013L30.8703 28.281C30.8212 28.3044 30.7686 28.3196 30.7146 28.3262Z" fill="#4A3E26"/>
<defs>
<linearGradient id="paint0_linear_1_218" x1="27.0003" y1="0.117798" x2="27.0003" y2="53.8513" gradientUnits="userSpaceOnUse">
<stop stop-color="#FFB800"/>
<stop offset="1" stop-color="#FF9D00"/>
</linearGradient>
</defs>
</svg>
