<svg width="54" height="54" viewBox="0 0 54 54" fill="none" xmlns="http://www.w3.org/2000/svg">
<path fill-rule="evenodd" clip-rule="evenodd" d="M29.9344 1.88805L36.3823 13.5576C36.6145 13.9728 36.9305 14.3351 37.3103 14.6215C37.6902 14.9079 38.1255 15.1121 38.5885 15.221L51.223 18.0203C51.8119 18.1738 52.3517 18.4756 52.7909 18.8968C53.2301 19.3181 53.5541 19.8449 53.732 20.4269C53.9099 21.0089 53.9357 21.6268 53.8071 22.2216C53.6784 22.8165 53.3995 23.3684 52.997 23.8249L44.3931 33.8762C44.072 34.2407 43.8299 34.6678 43.682 35.1306C43.534 35.5933 43.4836 36.0817 43.5338 36.5649L44.8806 50.0085C45.147 52.6972 42.5135 54.6873 40.1465 53.5566L28.3714 48.0736C27.939 47.8871 27.4729 47.7908 27.0019 47.7908C26.5309 47.7908 26.0649 47.8871 25.6325 48.0736L13.8574 53.5566C11.4903 54.6873 8.8569 52.6972 9.12325 50.0085L10.4701 36.5649C10.5203 36.0817 10.4698 35.5933 10.3219 35.1306C10.174 34.6678 9.93187 34.2407 9.61074 33.8762L1.00686 23.8249C0.604351 23.3684 0.325473 22.8165 0.196809 22.2216C0.0681453 21.6268 0.0939868 21.0089 0.271868 20.4269C0.44975 19.8449 0.773744 19.3181 1.21296 18.8968C1.65218 18.4756 2.19198 18.1738 2.78091 18.0203L15.4153 15.221C15.8784 15.1121 16.3137 14.9079 16.6935 14.6215C17.0734 14.3351 17.3894 13.9728 17.6216 13.5576L24.0695 1.88805C24.3502 1.35328 24.7718 0.905451 25.2886 0.593012C25.8055 0.280572 26.398 0.115417 27.0019 0.115417C27.6059 0.115417 28.1984 0.280572 28.7152 0.593012C29.2321 0.905451 29.6537 1.35328 29.9344 1.88805Z" fill="url(#paint0_linear_1_609)"/>
<path fill-rule="evenodd" clip-rule="evenodd" d="M38.3976 18.7139C38.2839 18.7146 38.1712 18.6924 38.0663 18.6488C37.9613 18.6052 37.8662 18.5409 37.7865 18.4598C37.7068 18.3788 37.6442 18.2825 37.6025 18.1768C37.5607 18.0711 37.5405 17.9581 37.5432 17.8444C37.5458 17.7349 37.57 17.6269 37.6143 17.5267C37.6587 17.4264 37.7224 17.3359 37.8017 17.2603C37.881 17.1847 37.9745 17.1255 38.0767 17.086C38.179 17.0465 38.288 17.0276 38.3976 17.0303C39.1627 17.0157 39.8909 16.6988 40.423 16.1488C40.9551 15.5988 41.2478 14.8605 41.237 14.0953C41.2449 13.874 41.3394 13.6647 41.5001 13.5124C41.6609 13.3601 41.875 13.2771 42.0964 13.2812C42.309 13.2888 42.5106 13.3773 42.6601 13.5286C42.8095 13.68 42.8955 13.8827 42.9005 14.0953C42.9126 15.3074 42.443 16.4747 41.5949 17.3407C40.7468 18.2067 39.5895 18.7006 38.3775 18.7139H38.3976Z" fill="#FF0044"/>
<path fill-rule="evenodd" clip-rule="evenodd" d="M14.134 43.0028C14.018 43.0117 13.9014 42.9966 13.7915 42.9584C13.6816 42.9202 13.5808 42.8596 13.4954 42.7806C13.41 42.7015 13.3419 42.6057 13.2953 42.4991C13.2487 42.3924 13.2246 42.2773 13.2246 42.161C13.2246 42.0446 13.2487 41.9295 13.2953 41.8229C13.3419 41.7163 13.41 41.6204 13.4954 41.5414C13.5808 41.4623 13.6816 41.4018 13.7915 41.3635C13.9014 41.3253 14.018 41.3102 14.134 41.3192C14.9035 41.3112 15.6385 40.9982 16.1775 40.4489C16.7164 39.8995 17.0154 39.1588 17.0087 38.3892C17.0178 38.1666 17.1141 37.9565 17.2767 37.8042C17.4394 37.6519 17.6554 37.5696 17.8781 37.5751C18.0924 37.5802 18.2966 37.6676 18.4481 37.8192C18.5997 37.9708 18.6872 38.1749 18.6923 38.3892C18.6976 39.6049 18.2208 40.7731 17.3664 41.6379C16.512 42.5027 15.3496 42.9935 14.134 43.0028Z" fill="#FF0044"/>
<path fill-rule="evenodd" clip-rule="evenodd" d="M40.3222 33.9315H31.3514C31.2399 33.9325 31.1295 33.9104 31.0269 33.8666C30.9244 33.8228 30.832 33.7583 30.7555 33.6772C30.6791 33.596 30.6202 33.4999 30.5827 33.3949C30.5451 33.2899 30.5297 33.1783 30.5373 33.0671C30.5359 32.96 30.5561 32.8538 30.5966 32.7547C30.6371 32.6556 30.6971 32.5656 30.773 32.4901C30.849 32.4147 30.9393 32.3552 31.0387 32.3153C31.138 32.2754 31.2444 32.2559 31.3514 32.258H40.2669C41.2777 32.1358 42.2044 31.6347 42.8601 30.8558C43.4477 30.1071 43.72 29.1587 43.619 28.2123C43.5029 27.4246 43.1197 26.7007 42.5335 26.1619C42.1452 25.8277 41.6678 25.6141 41.1599 25.5471C40.652 25.4802 40.1355 25.5628 39.6739 25.785C39.4002 25.9166 39.1575 26.1046 38.9618 26.3368C38.766 26.5689 38.6216 26.8399 38.5381 27.1318C38.4369 27.3557 38.3936 27.6014 38.412 27.8464C38.4304 28.0913 38.5101 28.3278 38.6436 28.534C38.742 28.7505 38.9025 28.933 39.1047 29.0583C39.3069 29.1835 39.5417 29.2459 39.7794 29.2376C39.936 29.256 40.0946 29.2305 40.2375 29.164C40.3804 29.0974 40.502 28.9924 40.5886 28.8606C40.6303 28.7378 40.649 28.6083 40.6438 28.4787C40.4526 28.5663 40.2351 28.5771 40.0362 28.5087C39.8373 28.4403 39.6723 28.298 39.5755 28.1114C39.4786 27.9247 39.4572 27.7079 39.5157 27.5059C39.5743 27.3039 39.7083 27.1322 39.89 27.0263C40.1836 26.8463 40.5288 26.7693 40.871 26.8075C41.2133 26.8457 41.533 26.997 41.7796 27.2374L41.8852 27.3479C42.127 27.6824 42.2663 28.0801 42.2859 28.4924C42.3055 28.9047 42.2047 29.3138 41.9957 29.6698C41.7579 30.0565 41.4232 30.3744 41.0248 30.5921C40.6264 30.8098 40.1781 30.9198 39.7241 30.9111C39.1943 30.8915 38.6782 30.7373 38.2244 30.463C37.7707 30.1886 37.3944 29.8032 37.1309 29.3431C36.7098 28.4882 36.6324 27.5043 36.9148 26.5941C37.0838 26.1023 37.3484 25.6489 37.6934 25.2599C38.0384 24.8709 38.457 24.554 38.9251 24.3275C38.9251 24.2722 38.9251 24.2722 38.9804 24.2722C39.7351 23.9198 40.5757 23.7934 41.4007 23.9085C42.2256 24.0235 42.9996 24.375 43.6291 24.9205C44.533 25.7082 45.1101 26.8051 45.2473 27.9962C45.4112 29.3828 45.0231 30.7782 44.1668 31.881C43.2386 33.0245 41.9006 33.7603 40.4378 33.9315H40.3222Z" fill="#009DFF"/>
<path fill-rule="evenodd" clip-rule="evenodd" d="M34.8949 13.2812C34.9008 13.0199 34.9838 12.7662 35.1333 12.5519C35.2829 12.3376 35.4924 12.1723 35.7356 12.0766C35.9788 11.981 36.2448 11.9593 36.5003 12.0142C36.7558 12.0692 36.9894 12.1984 37.1717 12.3856C37.354 12.5728 37.477 12.8096 37.5253 13.0665C37.5735 13.3233 37.5448 13.5887 37.4428 13.8292C37.3408 14.0698 37.17 14.2749 36.9518 14.4188C36.7337 14.5627 36.4779 14.639 36.2166 14.6381C35.8616 14.6328 35.5232 14.487 35.2754 14.2327C35.0277 13.9783 34.8908 13.6362 34.8949 13.2812Z" fill="#009DFF"/>
<path fill-rule="evenodd" clip-rule="evenodd" d="M15.9631 32.0017C15.97 31.7418 16.0534 31.4898 16.2027 31.2772C16.3521 31.0645 16.5609 30.9006 16.8029 30.8059C17.045 30.7112 17.3096 30.69 17.5636 30.7449C17.8176 30.7998 18.0498 30.9284 18.2312 31.1146C18.4125 31.3007 18.535 31.5363 18.5832 31.7916C18.6314 32.047 18.6032 32.311 18.5022 32.5504C18.4013 32.7899 18.2319 32.9943 18.0154 33.138C17.7988 33.2818 17.5447 33.3585 17.2848 33.3586C16.9298 33.3533 16.5914 33.2075 16.3436 32.9532C16.0959 32.6988 15.9591 32.3567 15.9631 32.0017Z" fill="#009DFF"/>
<path fill-rule="evenodd" clip-rule="evenodd" d="M38.3974 41.6408C38.4043 41.381 38.4877 41.129 38.6371 40.9163C38.7865 40.7036 38.9952 40.5397 39.2373 40.445C39.4793 40.3504 39.7439 40.3292 39.9979 40.3841C40.252 40.439 40.4842 40.5676 40.6655 40.7537C40.8468 40.9399 40.9693 41.1754 41.0175 41.4308C41.0657 41.6862 41.0376 41.9501 40.9366 42.1896C40.8356 42.4291 40.6662 42.6335 40.4497 42.7772C40.2332 42.9209 39.9791 42.9976 39.7192 42.9977C39.3642 42.9924 39.0257 42.8467 38.778 42.5923C38.5302 42.338 38.3934 41.9958 38.3974 41.6408Z" fill="#009DFF"/>
<path fill-rule="evenodd" clip-rule="evenodd" d="M23.9439 25.6442C23.723 25.651 23.5083 25.5704 23.3464 25.4198C23.1846 25.2693 23.0887 25.061 23.0795 24.8401C23.0933 24.5586 23.0498 24.2772 22.9517 24.0131C22.8535 23.7489 22.7026 23.5074 22.5083 23.3033C22.314 23.0991 22.0802 22.9366 21.8212 22.8256C21.5621 22.7145 21.2832 22.6573 21.0014 22.6573C20.7196 22.6573 20.4407 22.7145 20.1816 22.8256C19.9226 22.9366 19.6888 23.0991 19.4945 23.3033C19.3001 23.5074 19.1493 23.7489 19.0511 24.0131C18.9529 24.2772 18.9094 24.5586 18.9233 24.8401C18.9169 25.0522 18.8295 25.2538 18.679 25.4034C18.5284 25.553 18.3263 25.6392 18.1142 25.6442C17.8932 25.651 17.6785 25.5704 17.5167 25.4198C17.3548 25.2693 17.2589 25.061 17.2498 24.8401C17.2682 23.851 17.6749 22.9087 18.3819 22.2167C19.0889 21.5247 20.0397 21.1384 21.029 21.1413C22.0128 21.1399 22.957 21.5284 23.6549 22.2216C24.3529 22.9149 24.7477 23.8564 24.753 24.8401C24.7467 25.0522 24.6592 25.2538 24.5087 25.4034C24.3582 25.553 24.156 25.6392 23.9439 25.6442Z" fill="black"/>
<path fill-rule="evenodd" clip-rule="evenodd" d="M35.9402 25.6442C35.8334 25.647 35.7271 25.6281 35.6278 25.5888C35.5285 25.5494 35.4381 25.4905 35.3621 25.4154C35.286 25.3403 35.226 25.2507 35.1854 25.1518C35.1449 25.053 35.1247 24.947 35.1261 24.8401C35.1261 24.2777 34.9026 23.7382 34.5049 23.3405C34.1072 22.9428 33.5677 22.7193 33.0052 22.7193C32.4428 22.7193 31.9033 22.9428 31.5056 23.3405C31.1079 23.7382 30.8844 24.2777 30.8844 24.8401C30.8683 25.0457 30.7753 25.2376 30.6239 25.3775C30.4725 25.5175 30.2739 25.5952 30.0678 25.5952C29.8616 25.5952 29.663 25.5175 29.5116 25.3775C29.3603 25.2376 29.2672 25.0457 29.2511 24.8401C29.2867 23.8689 29.6975 22.9493 30.3972 22.2748C31.0968 21.6002 32.0308 21.2233 33.0027 21.2233C33.9746 21.2233 34.9086 21.6002 35.6083 22.2748C36.308 22.9493 36.7188 23.8689 36.7544 24.8401C36.7467 25.0527 36.6582 25.2543 36.5069 25.4038C36.3555 25.5532 36.1528 25.6393 35.9402 25.6442Z" fill="black"/>
<path fill-rule="evenodd" clip-rule="evenodd" d="M32.1809 31.087C32.1769 30.3574 31.8846 29.659 31.3678 29.144C30.8509 28.6291 30.1514 28.3393 29.4218 28.338C29.1996 28.3459 28.9895 28.4411 28.8371 28.6029C28.6847 28.7647 28.6022 28.9802 28.6077 29.2024C28.6153 29.415 28.7038 29.6166 28.8552 29.7661C29.0065 29.9155 29.2092 30.0015 29.4218 30.0065C29.7151 30.0065 29.9963 30.123 30.2036 30.3304C30.411 30.5377 30.5275 30.8189 30.5275 31.1122C30.5275 31.4054 30.411 31.6866 30.2036 31.894C29.9963 32.1013 29.7151 32.2178 29.4218 32.2178C29.2083 32.2229 29.0049 32.3096 28.8535 32.4601C28.702 32.6106 28.614 32.8135 28.6077 33.0269C28.6036 33.2483 28.6866 33.4625 28.8389 33.6232C28.9912 33.784 29.2005 33.8784 29.4218 33.8863C29.7151 33.8863 29.9963 34.0028 30.2036 34.2101C30.411 34.4175 30.5275 34.6987 30.5275 34.992C30.5275 35.2852 30.411 35.5664 30.2036 35.7738C29.9963 35.9811 29.7151 36.0976 29.4218 36.0976C29.2083 36.1026 29.0049 36.1894 28.8535 36.3399C28.702 36.4904 28.614 36.6933 28.6077 36.9067C28.6035 37.1286 28.6864 37.3433 28.8386 37.5048C28.9907 37.6664 29.2001 37.762 29.4218 37.7711C29.7872 37.7685 30.1485 37.6938 30.485 37.5514C30.8215 37.409 31.1267 37.2016 31.3829 36.9412C31.6392 36.6807 31.8416 36.3722 31.9785 36.0334C32.1154 35.6947 32.1842 35.3322 32.1809 34.9668C32.1854 34.2469 31.9138 33.5527 31.422 33.0269C31.9215 32.5061 32.1944 31.8086 32.1809 31.087Z" fill="black"/>
<defs>
<linearGradient id="paint0_linear_1_609" x1="27.0019" y1="0.115417" x2="27.0019" y2="53.88" gradientUnits="userSpaceOnUse">
<stop stop-color="white"/>
<stop offset="1" stop-color="#C5C5C5"/>
</linearGradient>
</defs>
</svg>
