<svg width="54" height="54" viewBox="0 0 54 54" fill="none" xmlns="http://www.w3.org/2000/svg">
<path fill-rule="evenodd" clip-rule="evenodd" d="M29.9049 1.88803L36.3567 13.5555C36.5895 13.9706 36.9057 14.3331 37.2853 14.6202C37.6649 14.9073 38.0998 15.1128 38.5626 15.2238L51.1999 18.0175C51.7874 18.1731 52.326 18.4748 52.7656 18.8946C53.2052 19.3143 53.5314 19.8384 53.714 20.4182C53.8965 20.9979 53.9294 21.6144 53.8097 22.2102C53.6899 22.8061 53.4213 23.362 53.0289 23.8262L44.3712 33.8757C44.0576 34.2448 43.8202 34.6725 43.6727 35.1339C43.5252 35.5953 43.4706 36.0813 43.512 36.5639L44.9089 50.0052C45.1752 52.6934 42.5422 54.6782 40.1756 53.5527L28.3573 48.0706C27.9331 47.8866 27.4756 47.7916 27.0132 47.7916C26.5508 47.7916 26.0933 47.8866 25.6691 48.0706L13.8408 53.5577C11.4741 54.6832 8.816 52.6985 9.10744 50.0102L10.4541 36.569C10.5163 36.0892 10.4765 35.6016 10.337 35.1383C10.1976 34.675 9.96181 34.2465 9.64509 33.8807L0.987434 23.8312C0.589591 23.369 0.316303 22.8129 0.193451 22.2156C0.0705993 21.6183 0.102242 20.9995 0.285396 20.4179C0.46855 19.8362 0.797131 19.3109 1.24005 18.8917C1.68297 18.4726 2.22556 18.1734 2.81642 18.0226L15.3783 15.2288C15.8517 15.1263 16.298 14.9246 16.6878 14.6371C17.0775 14.3495 17.4019 13.9826 17.6395 13.5606L24.0913 1.89306C24.3651 1.35918 24.7808 0.911164 25.2928 0.598335C25.8047 0.285506 26.3931 0.119995 26.9931 0.119995C27.5931 0.119995 28.1814 0.285506 28.6934 0.598335C29.2054 0.911164 29.6211 1.35918 29.8949 1.89306L29.9049 1.88803Z" fill="url(#paint0_linear_1_584)"/>
<path d="M18.2878 30.7854C20.8326 30.7854 22.8955 28.7225 22.8955 26.1777C22.8955 23.6329 20.8326 21.57 18.2878 21.57C15.743 21.57 13.6801 23.6329 13.6801 26.1777C13.6801 28.7225 15.743 30.7854 18.2878 30.7854Z" fill="white"/>
<path d="M18.288 27.2933C19.3869 27.2933 20.2778 26.4024 20.2778 25.3035C20.2778 24.2045 19.3869 23.3137 18.288 23.3137C17.189 23.3137 16.2982 24.2045 16.2982 25.3035C16.2982 26.4024 17.189 27.2933 18.288 27.2933Z" fill="black"/>
<path d="M35.7035 30.7854C38.2483 30.7854 40.3112 28.7225 40.3112 26.1777C40.3112 23.6329 38.2483 21.57 35.7035 21.57C33.1588 21.57 31.0958 23.6329 31.0958 26.1777C31.0958 28.7225 33.1588 30.7854 35.7035 30.7854Z" fill="white"/>
<path d="M35.7037 27.2933C36.8026 27.2933 37.6935 26.4024 37.6935 25.3035C37.6935 24.2045 36.8026 23.3137 35.7037 23.3137C34.6047 23.3137 33.7139 24.2045 33.7139 25.3035C33.7139 26.4024 34.6047 27.2933 35.7037 27.2933Z" fill="black"/>
<path d="M35.7036 36.8503H18.3078C18.2006 36.859 18.0928 36.8453 17.9911 36.8102C17.8895 36.7751 17.7962 36.7193 17.7171 36.6464C17.6381 36.5735 17.5751 36.4849 17.5319 36.3864C17.4888 36.2879 17.4665 36.1815 17.4665 36.074C17.4665 35.9664 17.4888 35.8601 17.5319 35.7616C17.5751 35.663 17.6381 35.5745 17.7171 35.5016C17.7962 35.4287 17.8895 35.3729 17.9911 35.3378C18.0928 35.3027 18.2006 35.289 18.3078 35.2977H35.7236C35.8308 35.289 35.9387 35.3027 36.0403 35.3378C36.142 35.3729 36.2353 35.4287 36.3143 35.5016C36.3934 35.5745 36.4565 35.663 36.4996 35.7616C36.5427 35.8601 36.565 35.9664 36.565 36.074C36.565 36.1815 36.5427 36.2879 36.4996 36.3864C36.4565 36.4849 36.3934 36.5735 36.3143 36.6464C36.2353 36.7193 36.142 36.7751 36.0403 36.8102C35.9387 36.8453 35.8308 36.859 35.7236 36.8503H35.7036Z" fill="black"/>
<defs>
<linearGradient id="paint0_linear_1_584" x1="27.0002" y1="0.119995" x2="27.0002" y2="53.8792" gradientUnits="userSpaceOnUse">
<stop stop-color="white"/>
<stop offset="1" stop-color="#C5C5C5"/>
</linearGradient>
</defs>
</svg>
