<svg width="54" height="54" viewBox="0 0 54 54" fill="none" xmlns="http://www.w3.org/2000/svg">
<path fill-rule="evenodd" clip-rule="evenodd" d="M29.9345 1.88805L36.3823 13.5576C36.6145 13.9728 36.9306 14.3351 37.3104 14.6215C37.6902 14.9079 38.1255 15.1121 38.5886 15.221L51.223 18.0203C51.812 18.1738 52.3518 18.4756 52.791 18.8968C53.2302 19.3181 53.5542 19.8449 53.7321 20.4269C53.91 21.0089 53.9358 21.6268 53.8071 22.2216C53.6785 22.8165 53.3996 23.3684 52.9971 23.8249L44.3932 33.8762C44.0721 34.2407 43.8299 34.6678 43.682 35.1306C43.5341 35.5933 43.4836 36.0817 43.5338 36.5649L44.8807 50.0085C45.147 52.6972 42.5136 54.6873 40.1465 53.5566L28.3715 48.0736C27.939 47.8871 27.473 47.7908 27.002 47.7908C26.531 47.7908 26.065 47.8871 25.6325 48.0736L13.8575 53.5566C11.4904 54.6873 8.85696 52.6972 9.12332 50.0085L10.4702 36.5649C10.5204 36.0817 10.4699 35.5933 10.322 35.1306C10.1741 34.6678 9.93193 34.2407 9.6108 33.8762L1.00692 23.8249C0.604412 23.3684 0.325534 22.8165 0.19687 22.2216C0.0682064 21.6268 0.0940479 21.0089 0.271929 20.4269C0.449811 19.8449 0.773805 19.3181 1.21302 18.8968C1.65224 18.4756 2.19204 18.1738 2.78097 18.0203L15.4154 15.221C15.8785 15.1121 16.3138 14.9079 16.6936 14.6215C17.0734 14.3351 17.3895 13.9728 17.6217 13.5576L24.0695 1.88805C24.3502 1.35328 24.7718 0.905451 25.2887 0.593012C25.8056 0.280572 26.398 0.115417 27.002 0.115417C27.606 0.115417 28.1984 0.280572 28.7153 0.593012C29.2322 0.905451 29.6538 1.35328 29.9345 1.88805Z" fill="url(#paint0_linear_1_251)"/>
<path fill-rule="evenodd" clip-rule="evenodd" d="M38.3977 18.7139C38.284 18.7146 38.1714 18.6924 38.0664 18.6488C37.9614 18.6052 37.8663 18.5409 37.7866 18.4598C37.7069 18.3788 37.6444 18.2825 37.6026 18.1768C37.5608 18.0711 37.5406 17.9581 37.5433 17.8444C37.5459 17.7349 37.5701 17.6269 37.6145 17.5267C37.6588 17.4264 37.7225 17.3359 37.8018 17.2603C37.8812 17.1847 37.9746 17.1255 38.0769 17.086C38.1791 17.0465 38.2881 17.0276 38.3977 17.0303C39.1628 17.0157 39.8911 16.6988 40.4232 16.1488C40.9553 15.5988 41.2479 14.8605 41.2372 14.0953C41.245 13.874 41.3395 13.6647 41.5003 13.5124C41.661 13.3601 41.8752 13.2771 42.0965 13.2812C42.3091 13.2888 42.5107 13.3773 42.6602 13.5286C42.8096 13.68 42.8957 13.8827 42.9007 14.0953C42.9127 15.3074 42.4431 16.4747 41.595 17.3407C40.7469 18.2067 39.5897 18.7006 38.3776 18.7139H38.3977Z" fill="#FF0044"/>
<path fill-rule="evenodd" clip-rule="evenodd" d="M14.134 43.0027C14.018 43.0117 13.9014 42.9966 13.7915 42.9583C13.6816 42.9201 13.5808 42.8596 13.4954 42.7805C13.41 42.7015 13.3419 42.6056 13.2953 42.499C13.2487 42.3924 13.2246 42.2773 13.2246 42.1609C13.2246 42.0446 13.2487 41.9294 13.2953 41.8228C13.3419 41.7162 13.41 41.6204 13.4954 41.5413C13.5808 41.4623 13.6816 41.4017 13.7915 41.3635C13.9014 41.3253 14.018 41.3101 14.134 41.3191C14.9035 41.3112 15.6385 40.9982 16.1775 40.4488C16.7164 39.8995 17.0154 39.1587 17.0087 38.3892C17.0178 38.1665 17.1141 37.9564 17.2767 37.8041C17.4394 37.6518 17.6554 37.5696 17.8781 37.575C18.0924 37.5801 18.2966 37.6675 18.4481 37.8191C18.5997 37.9707 18.6872 38.1749 18.6923 38.3892C18.6976 39.6048 18.2208 40.773 17.3664 41.6378C16.512 42.5026 15.3496 42.9934 14.134 43.0027Z" fill="#FF0044"/>
<path fill-rule="evenodd" clip-rule="evenodd" d="M40.3222 33.9315H31.3514C31.2399 33.9325 31.1295 33.9104 31.0269 33.8666C30.9244 33.8228 30.832 33.7583 30.7555 33.6772C30.6791 33.596 30.6202 33.4999 30.5827 33.3949C30.5451 33.2899 30.5297 33.1783 30.5373 33.0671C30.5359 32.96 30.5561 32.8538 30.5966 32.7547C30.6371 32.6556 30.6971 32.5656 30.773 32.4901C30.849 32.4147 30.9393 32.3552 31.0387 32.3153C31.138 32.2754 31.2444 32.2559 31.3514 32.258H40.2669C41.2777 32.1358 42.2044 31.6347 42.8601 30.8558C43.4477 30.1071 43.72 29.1587 43.619 28.2123C43.5029 27.4246 43.1197 26.7007 42.5335 26.1619C42.1452 25.8277 41.6678 25.6141 41.1599 25.5471C40.652 25.4802 40.1355 25.5628 39.6739 25.785C39.4002 25.9166 39.1575 26.1046 38.9618 26.3368C38.766 26.5689 38.6216 26.8399 38.5381 27.1318C38.4369 27.3557 38.3936 27.6014 38.412 27.8464C38.4304 28.0913 38.5101 28.3278 38.6436 28.534C38.742 28.7505 38.9025 28.933 39.1047 29.0583C39.3069 29.1835 39.5417 29.2459 39.7794 29.2376C39.936 29.256 40.0946 29.2305 40.2375 29.164C40.3804 29.0974 40.502 28.9924 40.5886 28.8606C40.6303 28.7378 40.649 28.6083 40.6438 28.4787C40.4526 28.5663 40.2351 28.5771 40.0362 28.5087C39.8373 28.4403 39.6723 28.298 39.5755 28.1114C39.4786 27.9247 39.4572 27.7079 39.5157 27.5059C39.5743 27.3039 39.7083 27.1322 39.89 27.0263C40.1836 26.8463 40.5288 26.7693 40.871 26.8075C41.2133 26.8457 41.533 26.997 41.7796 27.2374L41.8852 27.3479C42.127 27.6824 42.2663 28.0801 42.2859 28.4924C42.3055 28.9047 42.2047 29.3138 41.9957 29.6698C41.7579 30.0565 41.4232 30.3744 41.0248 30.5921C40.6264 30.8098 40.1781 30.9198 39.7241 30.9111C39.1943 30.8915 38.6782 30.7373 38.2244 30.463C37.7707 30.1886 37.3944 29.8032 37.1309 29.3431C36.7098 28.4882 36.6324 27.5043 36.9148 26.5941C37.0838 26.1023 37.3484 25.6489 37.6934 25.2599C38.0384 24.8709 38.457 24.554 38.9251 24.3275C38.9251 24.2722 38.9251 24.2722 38.9804 24.2722C39.7351 23.9198 40.5757 23.7934 41.4007 23.9085C42.2256 24.0235 42.9996 24.375 43.6291 24.9205C44.533 25.7082 45.1101 26.8051 45.2473 27.9962C45.4112 29.3828 45.0231 30.7782 44.1668 31.881C43.2386 33.0245 41.9006 33.7603 40.4378 33.9315H40.3222Z" fill="#009DFF"/>
<path fill-rule="evenodd" clip-rule="evenodd" d="M34.8949 13.2812C34.9008 13.0199 34.9838 12.7662 35.1333 12.5519C35.2829 12.3376 35.4924 12.1723 35.7356 12.0766C35.9788 11.981 36.2448 11.9593 36.5003 12.0142C36.7558 12.0692 36.9894 12.1984 37.1717 12.3856C37.354 12.5728 37.477 12.8096 37.5253 13.0665C37.5735 13.3233 37.5448 13.5887 37.4428 13.8292C37.3408 14.0698 37.17 14.2749 36.9518 14.4188C36.7337 14.5627 36.4779 14.639 36.2166 14.6381C35.8616 14.6328 35.5232 14.487 35.2754 14.2327C35.0277 13.9783 34.8908 13.6362 34.8949 13.2812Z" fill="#009DFF"/>
<path fill-rule="evenodd" clip-rule="evenodd" d="M15.9632 32.0017C15.9701 31.7418 16.0535 31.4898 16.2029 31.2772C16.3522 31.0645 16.561 30.9006 16.8031 30.8059C17.0451 30.7112 17.3097 30.69 17.5637 30.7449C17.8177 30.7998 18.05 30.9284 18.2313 31.1146C18.4126 31.3007 18.5351 31.5363 18.5833 31.7916C18.6315 32.047 18.6034 32.311 18.5024 32.5504C18.4014 32.7899 18.232 32.9943 18.0155 33.138C17.799 33.2818 17.5449 33.3585 17.285 33.3586C16.93 33.3533 16.5915 33.2075 16.3438 32.9532C16.096 32.6988 15.9592 32.3567 15.9632 32.0017Z" fill="#009DFF"/>
<path fill-rule="evenodd" clip-rule="evenodd" d="M38.3974 41.6407C38.4043 41.3809 38.4877 41.1289 38.6371 40.9163C38.7865 40.7036 38.9952 40.5396 39.2373 40.445C39.4793 40.3503 39.7439 40.3291 39.9979 40.384C40.252 40.4389 40.4842 40.5675 40.6655 40.7537C40.8468 40.9398 40.9693 41.1753 41.0175 41.4307C41.0657 41.6861 41.0376 41.9501 40.9366 42.1895C40.8356 42.429 40.6662 42.6334 40.4497 42.7771C40.2332 42.9209 39.9791 42.9976 39.7192 42.9977C39.3642 42.9924 39.0257 42.8466 38.778 42.5923C38.5302 42.3379 38.3934 41.9958 38.3974 41.6407Z" fill="#009DFF"/>
<path fill-rule="evenodd" clip-rule="evenodd" d="M23.944 25.6442C23.7231 25.651 23.5084 25.5704 23.3465 25.4198C23.1847 25.2693 23.0888 25.061 23.0796 24.8401C23.0935 24.5586 23.05 24.2772 22.9518 24.0131C22.8536 23.7489 22.7028 23.5074 22.5084 23.3033C22.3141 23.0991 22.0803 22.9366 21.8213 22.8256C21.5622 22.7145 21.2833 22.6573 21.0015 22.6573C20.7197 22.6573 20.4408 22.7145 20.1817 22.8256C19.9227 22.9366 19.6889 23.0991 19.4946 23.3033C19.3003 23.5074 19.1494 23.7489 19.0512 24.0131C18.9531 24.2772 18.9096 24.5586 18.9234 24.8401C18.917 25.0522 18.8296 25.2538 18.6791 25.4034C18.5286 25.553 18.3264 25.6392 18.1143 25.6442C17.8933 25.651 17.6786 25.5704 17.5168 25.4198C17.355 25.2693 17.259 25.061 17.2499 24.8401C17.2683 23.851 17.675 22.9087 18.382 22.2167C19.0891 21.5247 20.0398 21.1384 21.0292 21.1413C22.0129 21.1399 22.9571 21.5284 23.655 22.2216C24.353 22.9149 24.7478 23.8564 24.7531 24.8401C24.7468 25.0522 24.6593 25.2538 24.5088 25.4034C24.3583 25.553 24.1562 25.6392 23.944 25.6442Z" fill="black"/>
<path fill-rule="evenodd" clip-rule="evenodd" d="M35.9403 25.6442C35.8335 25.647 35.7273 25.6281 35.6279 25.5888C35.5286 25.5494 35.4382 25.4905 35.3622 25.4154C35.2862 25.3403 35.2261 25.2507 35.1855 25.1518C35.145 25.053 35.1248 24.947 35.1262 24.8401C35.1262 24.2777 34.9027 23.7382 34.505 23.3405C34.1073 22.9428 33.5678 22.7193 33.0054 22.7193C32.4429 22.7193 31.9035 22.9428 31.5057 23.3405C31.108 23.7382 30.8846 24.2777 30.8846 24.8401C30.8684 25.0457 30.7754 25.2376 30.624 25.3775C30.4726 25.5175 30.274 25.5952 30.0679 25.5952C29.8617 25.5952 29.6631 25.5175 29.5118 25.3775C29.3604 25.2376 29.2674 25.0457 29.2512 24.8401C29.2868 23.8689 29.6976 22.9493 30.3973 22.2748C31.097 21.6002 32.031 21.2233 33.0029 21.2233C33.9747 21.2233 34.9087 21.6002 35.6084 22.2748C36.3081 22.9493 36.7189 23.8689 36.7545 24.8401C36.7469 25.0527 36.6583 25.2543 36.507 25.4038C36.3557 25.5532 36.153 25.6393 35.9403 25.6442Z" fill="black"/>
<path fill-rule="evenodd" clip-rule="evenodd" d="M32.181 31.087C32.177 30.3574 31.8848 29.6589 31.3679 29.144C30.8511 28.629 30.1516 28.3393 29.4219 28.338C29.1998 28.3458 28.9897 28.441 28.8372 28.6028C28.6848 28.7647 28.6024 28.9801 28.6078 29.2024C28.6154 29.4149 28.704 29.6165 28.8553 29.766C29.0066 29.9155 29.2093 30.0015 29.4219 30.0065C29.7152 30.0065 29.9964 30.123 30.2038 30.3303C30.4111 30.5376 30.5276 30.8189 30.5276 31.1121C30.5276 31.4053 30.4111 31.6866 30.2038 31.8939C29.9964 32.1013 29.7152 32.2177 29.4219 32.2177C29.2085 32.2228 29.0051 32.3095 28.8536 32.46C28.7021 32.6106 28.6142 32.8134 28.6078 33.0269C28.6037 33.2483 28.6867 33.4624 28.839 33.6231C28.9913 33.7839 29.2007 33.8784 29.4219 33.8863C29.7152 33.8863 29.9964 34.0027 30.2038 34.2101C30.4111 34.4174 30.5276 34.6987 30.5276 34.9919C30.5276 35.2851 30.4111 35.5663 30.2038 35.7737C29.9964 35.981 29.7152 36.0975 29.4219 36.0975C29.2085 36.1026 29.0051 36.1893 28.8536 36.3398C28.7021 36.4903 28.6142 36.6932 28.6078 36.9067C28.6037 37.1285 28.6866 37.3432 28.8387 37.5048C28.9909 37.6663 29.2002 37.7619 29.4219 37.7711C29.7873 37.7684 30.1486 37.6938 30.4851 37.5514C30.8216 37.4089 31.1268 37.2016 31.383 36.9411C31.6393 36.6806 31.8417 36.3722 31.9786 36.0334C32.1156 35.6946 32.1843 35.3322 32.181 34.9668C32.1855 34.2469 31.9139 33.5526 31.4221 33.0269C31.9217 32.506 32.1945 31.8085 32.181 31.087Z" fill="black"/>
<defs>
<linearGradient id="paint0_linear_1_251" x1="27.002" y1="0.115417" x2="27.002" y2="53.88" gradientUnits="userSpaceOnUse">
<stop stop-color="#FFB800"/>
<stop offset="1" stop-color="#FF9D00"/>
</linearGradient>
</defs>
</svg>
