<svg width="22" height="22" viewBox="0 0 22 22" fill="none" xmlns="http://www.w3.org/2000/svg">
<path d="M21.75 9.5V16.3C21.75 17.0293 21.4603 17.7288 20.9445 18.2445C20.4288 18.7603 19.7293 19.05 19 19.05H13.73L10.83 21.57C10.693 21.686 10.5195 21.7497 10.34 21.75C10.2293 21.7519 10.1198 21.728 10.02 21.68C9.89114 21.6192 9.78226 21.523 9.7061 21.4025C9.62995 21.2821 9.58968 21.1425 9.59 21V19.05H9C8.27065 19.05 7.57118 18.7603 7.05546 18.2445C6.53973 17.7288 6.25 17.0293 6.25 16.3V14.05H7.71L10.19 16.2C10.5967 16.5562 11.1194 16.7518 11.66 16.75C11.9838 16.7494 12.304 16.6813 12.6 16.55C12.9911 16.3688 13.3223 16.0795 13.5544 15.7163C13.7865 15.3531 13.9099 14.9311 13.91 14.5V14C14.8555 13.7909 15.7016 13.2659 16.3087 12.5115C16.9158 11.7571 17.2478 10.8184 17.25 9.85V6.75H19C19.7293 6.75 20.4288 7.03973 20.9445 7.55546C21.4603 8.07118 21.75 8.77065 21.75 9.5ZM15.75 3V9.8C15.75 10.5293 15.4603 11.2288 14.9445 11.7445C14.4288 12.2603 13.7293 12.55 13 12.55H12.41V14.5C12.4103 14.6425 12.37 14.7821 12.2939 14.9025C12.2177 15.023 12.1089 15.1192 11.98 15.18C11.8802 15.228 11.7707 15.2519 11.66 15.25C11.4805 15.2497 11.307 15.186 11.17 15.07L8.27 12.55H3C2.27065 12.55 1.57118 12.2603 1.05546 11.7445C0.539731 11.2288 0.25 10.5293 0.25 9.8V3C0.25 2.27065 0.539731 1.57118 1.05546 1.05546C1.57118 0.539731 2.27065 0.25 3 0.25H13C13.7293 0.25 14.4288 0.539731 14.9445 1.05546C15.4603 1.57118 15.75 2.27065 15.75 3ZM11.75 8.5C11.7474 8.30189 11.6676 8.11263 11.5275 7.97253C11.3874 7.83244 11.1981 7.75259 11 7.75H5C4.80109 7.75 4.61032 7.82902 4.46967 7.96967C4.32902 8.11032 4.25 8.30109 4.25 8.5C4.25 8.69891 4.32902 8.88968 4.46967 9.03033C4.61032 9.17098 4.80109 9.25 5 9.25H11C11.1981 9.24741 11.3874 9.16756 11.5275 9.02747C11.6676 8.88737 11.7474 8.69811 11.75 8.5ZM11.75 4.5C11.7474 4.30189 11.6676 4.11263 11.5275 3.97253C11.3874 3.83244 11.1981 3.75259 11 3.75H5C4.80109 3.75 4.61032 3.82902 4.46967 3.96967C4.32902 4.11032 4.25 4.30109 4.25 4.5C4.25 4.69891 4.32902 4.88968 4.46967 5.03033C4.61032 5.17098 4.80109 5.25 5 5.25H11C11.1981 5.24741 11.3874 5.16756 11.5275 5.02747C11.6676 4.88737 11.7474 4.69811 11.75 4.5Z" fill="white" fill-opacity="0.9"/>
</svg>
