<svg width="24" height="24" viewBox="0 0 24 24" fill="none" xmlns="http://www.w3.org/2000/svg">
<path d="M20.9957 10.129C20.9377 6.97078 20.5161 4.64142 20.5219 4.63927C20.3466 4.2822 20.0391 3.98356 19.6628 3.83102C17.1931 2.83113 14.7645 1.87679 12.3968 1.06252C12.1548 0.97916 11.8996 0.97916 11.658 1.06252C9.29071 1.87464 6.86253 2.82726 4.39318 3.82587C4.061 3.96036 3.78233 4.20915 3.6008 4.51166C3.6148 4.51337 3.09327 6.2128 3.00436 9.96616C2.95167 13.7199 3.39952 14.8444 3.3847 14.8457C3.62715 15.6707 4.08076 16.5099 4.73072 17.3633C5.45724 18.3164 6.43896 19.3008 7.62486 20.2684C9.5879 21.8768 11.425 22.838 11.502 22.8719C11.6687 22.957 11.8453 23.0004 12.0272 23C12.2095 23 12.3861 22.9566 12.5524 22.8711C12.6298 22.8371 14.469 21.8729 16.4312 20.265C17.6175 19.2965 18.5992 18.3121 19.3261 17.3594C20.0226 16.4455 20.4935 15.5487 20.7211 14.6678C20.7121 14.6666 21.0414 13.2881 20.9957 10.1294V10.129ZM13.0044 12.5924V14.5935C13.0044 15.1573 12.5668 15.614 12.0268 15.6145C11.4867 15.6145 11.0488 15.1577 11.0488 14.5939V12.6208C10.3441 12.2551 9.85916 11.4963 9.85916 10.6193C9.85916 9.38522 10.8174 8.38447 11.9996 8.38447C13.1818 8.38447 14.1401 9.38479 14.1405 10.6189C14.1405 11.4739 13.6803 12.2169 13.0044 12.5924Z" fill="white" fill-opacity="0.9"/>
</svg>
