<svg width="24" height="24" viewBox="0 0 24 24" fill="none" xmlns="http://www.w3.org/2000/svg">
<path d="M20.7795 9.43306L13.3264 4.09996C13.1647 3.98278 12.9536 3.96767 12.7785 4.05986C12.6023 4.15098 12.4921 4.3338 12.4921 4.53379V7.21442C7.21153 7.49252 3 11.9251 3 17.3332V19.4665C3 19.7326 3.19364 19.9576 3.45422 19.9946C3.7085 20.0321 3.96131 19.8727 4.03408 19.6133L4.11544 19.3253C5.19691 15.4984 8.59683 12.7756 12.4922 12.5486V15.2C12.4922 15.4 12.6024 15.5828 12.7785 15.6739C12.9536 15.7661 13.1647 15.75 13.3265 15.6338L20.7796 10.3007C20.9176 10.2007 21 10.0393 21 9.86689C21 9.69453 20.9176 9.53304 20.7795 9.43306Z" fill="white" fill-opacity="0.9"/>
</svg>
