<svg width="24" height="24" viewBox="0 0 24 24" fill="none" xmlns="http://www.w3.org/2000/svg">
<g clip-path="url(#clip0_1_36)">
<path d="M19.4081 7.01586L15.4458 6.44009L13.6738 2.84971C12.9897 1.46324 11.0106 1.46273 10.3261 2.84966L8.55411 6.44009L4.59182 7.01586C3.06182 7.23814 2.44987 9.12012 3.55733 10.1997L6.42448 12.9945L5.74766 16.9407C5.48628 18.4644 7.08687 19.6281 8.45604 18.9085L12 17.0453L15.544 18.9085C16.9148 19.6291 18.5131 18.461 18.2522 16.9407L17.5754 12.9945L20.4426 10.1997C21.5497 9.1205 20.9387 7.23828 19.4081 7.01586Z" fill="white"/>
<path d="M6.31551 2.21024L5.35874 0.893431C5.09901 0.536056 4.59871 0.456791 4.24134 0.716525C3.88392 0.976212 3.8047 1.47651 4.06439 1.83393L5.02115 3.15074C5.28102 3.5083 5.78137 3.58728 6.13855 3.32764C6.49598 3.068 6.57519 2.56766 6.31551 2.21024Z" fill="#FFC800"/>
<path d="M3.14048 14.0113C3.00393 13.5911 2.55271 13.361 2.13243 13.4977L0.552983 14.0109C0.132796 14.1474 -0.0971253 14.5987 0.0393745 15.019C0.176155 15.4399 0.628311 15.6689 1.04742 15.5326L2.62692 15.0193C3.0471 14.8829 3.27702 14.4315 3.14048 14.0113Z" fill="#FFC800"/>
<path d="M19.7587 0.716538C19.4013 0.456804 18.901 0.536023 18.6413 0.893444L17.6845 2.21025C17.4248 2.56768 17.504 3.06802 17.8614 3.32766C18.219 3.58744 18.7192 3.50803 18.9789 3.15075L19.9356 1.83394C20.1953 1.47652 20.1161 0.976225 19.7587 0.716538Z" fill="#FFC800"/>
<path d="M23.447 14.0109L21.8675 13.4977C21.4473 13.3609 20.996 13.5911 20.8595 14.0113C20.7229 14.4315 20.9529 14.8828 21.3731 15.0193L22.9526 15.5326C23.3719 15.669 23.8239 15.4397 23.9606 15.019C24.0971 14.5988 23.8672 14.1475 23.447 14.0109Z" fill="#FFC800"/>
<path d="M12 20.2127C11.5582 20.2127 11.2 20.5709 11.2 21.0127V22.6364C11.2 23.0782 11.5582 23.4363 12 23.4363C12.4418 23.4363 12.7999 23.0782 12.7999 22.6364V21.0127C12.8 20.5709 12.4418 20.2127 12 20.2127Z" fill="#FFC800"/>
</g>
<defs>
<clipPath id="clip0_1_36">
<rect width="24" height="24" fill="white"/>
</clipPath>
</defs>
</svg>
