<svg width="24" height="24" viewBox="0 0 24 24" fill="none" xmlns="http://www.w3.org/2000/svg">
<path fill-rule="evenodd" clip-rule="evenodd" d="M20.1395 19.4419C20.1395 20.12 19.8698 20.7712 19.3907 21.2512C18.9107 21.7302 18.2595 22 17.5814 22H6.4186C5.74046 22 5.0893 21.7302 4.6093 21.2512C4.13023 20.7712 3.86046 20.12 3.86046 19.4419V4.55814C3.86046 3.88 4.13023 3.22884 4.6093 2.74884C5.0893 2.26977 5.74046 2 6.4186 2H14.4056C14.8372 2 15.2512 2.17116 15.5563 2.47721L19.6623 6.58326C19.9684 6.88837 20.1395 7.30233 20.1395 7.73395V19.4419ZM8.27906 18.2791H12.4651C12.8502 18.2791 13.1628 17.9665 13.1628 17.5814C13.1628 17.1963 12.8502 16.8837 12.4651 16.8837H8.27906C7.89395 16.8837 7.58139 17.1963 7.58139 17.5814C7.58139 17.9665 7.89395 18.2791 8.27906 18.2791ZM8.27906 15.0233H15.7209C16.106 15.0233 16.4186 14.7107 16.4186 14.3256C16.4186 13.9405 16.106 13.6279 15.7209 13.6279H8.27906C7.89395 13.6279 7.58139 13.9405 7.58139 14.3256C7.58139 14.7107 7.89395 15.0233 8.27906 15.0233ZM14.3256 3.62791V6.88372C14.3256 7.39721 14.7423 7.81395 15.2558 7.81395H18.5116L14.3256 3.62791ZM8.27906 11.7674H15.7209C16.106 11.7674 16.4186 11.4549 16.4186 11.0698C16.4186 10.6847 16.106 10.3721 15.7209 10.3721H8.27906C7.89395 10.3721 7.58139 10.6847 7.58139 11.0698C7.58139 11.4549 7.89395 11.7674 8.27906 11.7674Z" fill="white" fill-opacity="0.9"/>
</svg>
